<mxfile host="app.diagrams.net" modified="2023-04-13T07:49:19.362Z" agent="Mozilla/5.0 (X11; Linux x86_64) AppleWebKit/537.36 (KHTML, like Gecko) Chrome/110.0.0.0 Safari/537.36" version="21.1.1" etag="_IHrn8HY80Y1OzN2KwAD" type="github">
  <diagram name="第 1 页" id="V5MGT1LcOvTkD2tV80Dg">
    <mxGraphModel>
      <root>
        <mxCell id="0" />
        <mxCell id="1" parent="0" />
      </root>
    </mxGraphModel>
  </diagram>
</mxfile>
